# xmcd
#
# Track frame offsets: 
#        150
#        14538
#        26441
#        46071
#        61496
#        80839
#        99835
#        116822
#        134658
#        156269
#
# Disc length: 2857 seconds
#
# Revision: 0
# Processed by: cddbd v1.5.2PL0 Copyright (c) Steve Scherf et al.
# Submitted via: ExactAudioCopy v0.99pb4
#
DISCID=820b270a
DTITLE=JB and the delta jukes - Riding in the moonlight
DYEAR=2003
DGENRE=
TTITLE0=It's so hard
TTITLE1=Step it up' go
TTITLE2=Snake dancin through gods barnyard
TTITLE3=Mississippi blues woman
TTITLE4=I can't be satisfied
TTITLE5=Come on in my kitchen
TTITLE6=Riding in the moonlight
TTITLE7=Eliza Shines
TTITLE8=Write me a few of your lines
TTITLE9=Bo-Weavil blues
EXTD=
EXTT0=
EXTT1=
EXTT2=
EXTT3=
EXTT4=
EXTT5=
EXTT6=
EXTT7=
EXTT8=
EXTT9=
PLAYORDER=
